<svg xmlns="http://www.w3.org/2000/svg" width="1320" height="540" viewBox="0 0 1320 540">
<rect width="100%" height="100%" fill="#ffffff"/>
<text x="28" y="40" font-family="Arial, Microsoft YaHei" font-size="22" font-weight="700">V3 aligned benchmark: F1 across generators and rewrite attacks</text>
<line x1="82" y1="392" x2="1280" y2="392" stroke="#374151"/>
<line x1="82" y1="72" x2="82" y2="392" stroke="#374151"/>
<line x1="77" y1="392.0" x2="1280" y2="392.0" stroke="#e5e7eb"/>
<text x="70" y="396.0" text-anchor="end" font-family="Arial" font-size="12">0%</text>
<line x1="77" y1="328.0" x2="1280" y2="328.0" stroke="#e5e7eb"/>
<text x="70" y="332.0" text-anchor="end" font-family="Arial" font-size="12">20%</text>
<line x1="77" y1="264.0" x2="1280" y2="264.0" stroke="#e5e7eb"/>
<text x="70" y="268.0" text-anchor="end" font-family="Arial" font-size="12">40%</text>
<line x1="77" y1="200.0" x2="1280" y2="200.0" stroke="#e5e7eb"/>
<text x="70" y="204.0" text-anchor="end" font-family="Arial" font-size="12">60%</text>
<line x1="77" y1="136.0" x2="1280" y2="136.0" stroke="#e5e7eb"/>
<text x="70" y="140.0" text-anchor="end" font-family="Arial" font-size="12">80%</text>
<line x1="77" y1="72.0" x2="1280" y2="72.0" stroke="#e5e7eb"/>
<text x="70" y="76.0" text-anchor="end" font-family="Arial" font-size="12">100%</text>
<rect x="144" y="91.6" width="42" height="300.4" rx="4" fill="#2563eb"/>
<text x="165.0" y="85.6" text-anchor="middle" font-family="Arial" font-size="11">94%</text>
<rect x="198" y="97.1" width="42" height="294.9" rx="4" fill="#16a34a"/>
<text x="219.0" y="91.1" text-anchor="middle" font-family="Arial" font-size="11">92%</text>
<rect x="252" y="94.6" width="42" height="297.4" rx="4" fill="#dc2626"/>
<text x="273.0" y="88.6" text-anchor="middle" font-family="Arial" font-size="11">93%</text>
<rect x="306" y="103.4" width="42" height="288.6" rx="4" fill="#7c3aed"/>
<text x="327.0" y="97.4" text-anchor="middle" font-family="Arial" font-size="11">90%</text>
<text x="236" y="422" text-anchor="middle" font-family="Arial" font-size="13">HC3 ChatGPT</text>
<rect x="444" y="195.7" width="42" height="196.3" rx="4" fill="#2563eb"/>
<text x="465.0" y="189.7" text-anchor="middle" font-family="Arial" font-size="11">61%</text>
<rect x="498" y="118.7" width="42" height="273.3" rx="4" fill="#16a34a"/>
<text x="519.0" y="112.7" text-anchor="middle" font-family="Arial" font-size="11">85%</text>
<rect x="552" y="133.1" width="42" height="258.9" rx="4" fill="#dc2626"/>
<text x="573.0" y="127.1" text-anchor="middle" font-family="Arial" font-size="11">81%</text>
<rect x="606" y="150.2" width="42" height="241.8" rx="4" fill="#7c3aed"/>
<text x="627.0" y="144.2" text-anchor="middle" font-family="Arial" font-size="11">76%</text>
<text x="536" y="422" text-anchor="middle" font-family="Arial" font-size="13">DeepSeek original</text>
<rect x="744" y="346.3" width="42" height="45.7" rx="4" fill="#2563eb"/>
<text x="765.0" y="340.3" text-anchor="middle" font-family="Arial" font-size="11">14%</text>
<rect x="798" y="338.7" width="42" height="53.3" rx="4" fill="#16a34a"/>
<text x="819.0" y="332.7" text-anchor="middle" font-family="Arial" font-size="11">17%</text>
<rect x="852" y="137.4" width="42" height="254.6" rx="4" fill="#dc2626"/>
<text x="873.0" y="131.4" text-anchor="middle" font-family="Arial" font-size="11">80%</text>
<rect x="906" y="121.5" width="42" height="270.5" rx="4" fill="#7c3aed"/>
<text x="927.0" y="115.5" text-anchor="middle" font-family="Arial" font-size="11">85%</text>
<text x="836" y="422" text-anchor="middle" font-family="Arial" font-size="13">Casual rewrite</text>
<rect x="1044" y="368.3" width="42" height="23.7" rx="4" fill="#2563eb"/>
<text x="1065.0" y="362.3" text-anchor="middle" font-family="Arial" font-size="11">7%</text>
<rect x="1098" y="392.0" width="42" height="0.0" rx="4" fill="#16a34a"/>
<text x="1119.0" y="386.0" text-anchor="middle" font-family="Arial" font-size="11">0%</text>
<rect x="1152" y="192.5" width="42" height="199.5" rx="4" fill="#dc2626"/>
<text x="1173.0" y="186.5" text-anchor="middle" font-family="Arial" font-size="11">62%</text>
<rect x="1206" y="137.4" width="42" height="254.6" rx="4" fill="#7c3aed"/>
<text x="1227.0" y="131.4" text-anchor="middle" font-family="Arial" font-size="11">80%</text>
<text x="1136" y="422" text-anchor="middle" font-family="Arial" font-size="13">Adversarial rewrite</text>
<rect x="86" y="454" width="14" height="14" rx="2" fill="#2563eb"/>
<text x="106" y="466" font-family="Arial" font-size="12">hc3_mixed_tfidf_logreg</text>
<rect x="386" y="454" width="14" height="14" rx="2" fill="#16a34a"/>
<text x="406" y="466" font-family="Arial" font-size="12">clean_aligned_mixed_tfidf_logreg</text>
<rect x="686" y="454" width="14" height="14" rx="2" fill="#dc2626"/>
<text x="706" y="466" font-family="Arial" font-size="12">casual_aug_mixed_tfidf_logreg</text>
<rect x="986" y="454" width="14" height="14" rx="2" fill="#7c3aed"/>
<text x="1006" y="466" font-family="Arial" font-size="12">rewrite_aligned_mixed_tfidf_logreg</text>
</svg>