<svg xmlns="http://www.w3.org/2000/svg" width="1180" height="500" viewBox="0 0 1180 500">
<rect width="100%" height="100%" fill="#fff"/>
<text x="26" y="38" font-family="Arial, Microsoft YaHei" font-size="22" font-weight="700">V2 F1 comparison: public HC3 vs DeepSeek rewrite attacks</text>
<line x1="80" y1="370" x2="1140" y2="370" stroke="#374151"/>
<line x1="80" y1="70" x2="80" y2="370" stroke="#374151"/>
<line x1="75" y1="370.0" x2="1140" y2="370.0" stroke="#e5e7eb"/>
<text x="68" y="374.0" text-anchor="end" font-family="Arial" font-size="12">0%</text>
<line x1="75" y1="310.0" x2="1140" y2="310.0" stroke="#e5e7eb"/>
<text x="68" y="314.0" text-anchor="end" font-family="Arial" font-size="12">20%</text>
<line x1="75" y1="250.0" x2="1140" y2="250.0" stroke="#e5e7eb"/>
<text x="68" y="254.0" text-anchor="end" font-family="Arial" font-size="12">40%</text>
<line x1="75" y1="190.0" x2="1140" y2="190.0" stroke="#e5e7eb"/>
<text x="68" y="194.0" text-anchor="end" font-family="Arial" font-size="12">60%</text>
<line x1="75" y1="130.0" x2="1140" y2="130.0" stroke="#e5e7eb"/>
<text x="68" y="134.0" text-anchor="end" font-family="Arial" font-size="12">80%</text>
<line x1="75" y1="70.0" x2="1140" y2="70.0" stroke="#e5e7eb"/>
<text x="68" y="74.0" text-anchor="end" font-family="Arial" font-size="12">100%</text>
<rect x="150" y="78.5" width="42" height="291.5" rx="4" fill="#2563eb"/>
<text x="171.0" y="72.5" text-anchor="middle" font-family="Arial" font-size="11">97%</text>
<rect x="206" y="80.2" width="42" height="289.8" rx="4" fill="#16a34a"/>
<text x="227.0" y="74.2" text-anchor="middle" font-family="Arial" font-size="11">97%</text>
<rect x="262" y="83.9" width="42" height="286.1" rx="4" fill="#dc2626"/>
<text x="283.0" y="77.9" text-anchor="middle" font-family="Arial" font-size="11">95%</text>
<rect x="318" y="78.3" width="42" height="291.7" rx="4" fill="#9333ea"/>
<text x="339.0" y="72.3" text-anchor="middle" font-family="Arial" font-size="11">97%</text>
<text x="245" y="400" text-anchor="middle" font-family="Arial" font-size="13">hc3_in_domain</text>
<rect x="480" y="180.5" width="42" height="189.5" rx="4" fill="#2563eb"/>
<text x="501.0" y="174.5" text-anchor="middle" font-family="Arial" font-size="11">63%</text>
<rect x="536" y="180.5" width="42" height="189.5" rx="4" fill="#16a34a"/>
<text x="557.0" y="174.5" text-anchor="middle" font-family="Arial" font-size="11">63%</text>
<rect x="592" y="170.0" width="42" height="200.0" rx="4" fill="#dc2626"/>
<text x="613.0" y="164.0" text-anchor="middle" font-family="Arial" font-size="11">67%</text>
<rect x="648" y="139.2" width="42" height="230.8" rx="4" fill="#9333ea"/>
<text x="669.0" y="133.2" text-anchor="middle" font-family="Arial" font-size="11">77%</text>
<text x="575" y="400" text-anchor="middle" font-family="Arial" font-size="13">deepseek_original</text>
<rect x="810" y="370.0" width="42" height="0.0" rx="4" fill="#2563eb"/>
<text x="831.0" y="364.0" text-anchor="middle" font-family="Arial" font-size="11">0%</text>
<rect x="866" y="370.0" width="42" height="0.0" rx="4" fill="#16a34a"/>
<text x="887.0" y="364.0" text-anchor="middle" font-family="Arial" font-size="11">0%</text>
<rect x="922" y="370.0" width="42" height="0.0" rx="4" fill="#dc2626"/>
<text x="943.0" y="364.0" text-anchor="middle" font-family="Arial" font-size="11">0%</text>
<rect x="978" y="250.0" width="42" height="120.0" rx="4" fill="#9333ea"/>
<text x="999.0" y="244.0" text-anchor="middle" font-family="Arial" font-size="11">40%</text>
<text x="905" y="400" text-anchor="middle" font-family="Arial" font-size="13">deepseek_adversarial_rewrite</text>
<rect x="90" y="435" width="14" height="14" rx="2" fill="#2563eb"/>
<text x="110" y="447" font-family="Arial" font-size="12">hc3_char_tfidf_logreg</text>
<rect x="350" y="435" width="14" height="14" rx="2" fill="#16a34a"/>
<text x="370" y="447" font-family="Arial" font-size="12">hc3_mixed_tfidf_logreg</text>
<rect x="610" y="435" width="14" height="14" rx="2" fill="#dc2626"/>
<text x="630" y="447" font-family="Arial" font-size="12">aug_char_tfidf_logreg</text>
<rect x="870" y="435" width="14" height="14" rx="2" fill="#9333ea"/>
<text x="890" y="447" font-family="Arial" font-size="12">aug_mixed_tfidf_logreg</text>
</svg>